<svg xmlns="http://www.w3.org/2000/svg" width="612" height="612"><path d="M522.375 89.625C464.578 31.829 387.736 0 306 0 224.264 0 147.422 31.829 89.625 89.625 31.831 147.422 0 224.264 0 306c0 81.736 31.831 158.578 89.625 216.375C147.422 580.171 224.264 612 306 612c81.736 0 158.578-31.829 216.375-89.625C580.17 464.578 612 387.736 612 306c0-81.736-31.83-158.578-89.625-216.375zm-13.552 419.197C454.647 562.999 382.616 592.835 306 592.835s-148.647-29.836-202.824-84.013C49.001 454.647 19.165 382.616 19.165 306s29.836-148.647 84.011-202.822C157.353 49.001 229.384 19.165 306 19.165s148.647 29.836 202.823 84.013c54.176 54.175 84.012 126.206 84.012 202.822s-29.836 148.647-84.012 202.822zM315.582 122.017h-19.165V70.91h19.165v51.107zm-19.165 367.966h19.165v51.106h-19.165v-51.106zm-174.4-174.401H70.91v-19.165h51.106v19.165zm419.073-19.165v19.165h-51.106v-19.165h51.106zM195.486 133.758l-15.332-26.555 16.597-9.583 15.332 26.555-16.597 9.583zm221.012 344.5l15.332 26.555-16.598 9.582L399.9 487.84l16.598-9.582zm-292.337-78.339l9.583 16.597-26.555 15.332-9.583-16.597 26.555-15.332zm363.671-187.846l-9.583-16.597 26.556-15.332 9.582 16.597-26.555 15.332zm-71.33-78.324l-16.597-9.583 15.332-26.555 16.597 9.583-15.332 26.555zM195.491 478.26l16.597 9.582-15.332 26.556-16.597-9.583 15.332-26.555zm292.352-78.335l26.556 15.332-9.583 16.597-26.555-15.332 9.582-16.597zM107.201 180.162l26.555 15.332-9.583 16.597-26.555-15.332 9.583-16.597zM336.025 306c0-13.205-8.573-24.438-20.443-28.448V142.459h-19.165v135.092c-11.87 4.009-20.442 15.242-20.442 28.448 0 16.556 13.469 30.025 30.025 30.025 7.6 0 14.545-2.845 19.84-7.517l117.106 67.562 9.577-16.6-117.087-67.552c.384-1.911.589-3.891.589-5.917zM306 316.86c-5.988 0-10.86-4.872-10.86-10.86s4.872-10.86 10.86-10.86 10.86 4.872 10.86 10.86-4.872 10.86-10.86 10.86zm0-265.754C165.451 51.106 51.106 165.451 51.106 306S165.45 560.894 306 560.894c140.549 0 254.894-114.345 254.894-254.894S446.549 51.106 306 51.106zm0 490.623C176.019 541.729 70.271 435.98 70.271 306S176.019 70.271 306 70.271 541.729 176.02 541.729 306 435.981 541.729 306 541.729z"/></svg>