<svg height="512pt" viewBox="0 0 512 512" width="512pt" xmlns="http://www.w3.org/2000/svg"><path d="M261.04 512c-1.696 0-3.392 0-5.099-.008-40.132.098-77.214-.922-113.277-3.117-33.062-2.012-63.242-13.438-87.281-33.04-23.196-18.913-39.035-44.487-47.078-76.003-7-27.437-7.371-54.371-7.727-80.422C.32 300.72.055 278.57 0 256.047c.055-22.617.32-44.766.578-63.457.356-26.047.727-52.98 7.727-80.422 8.043-31.516 23.883-57.09 47.078-76.004 24.039-19.602 54.219-31.027 87.285-33.039C178.73.934 215.82-.09 256.039.008c40.145-.086 77.215.926 113.277 3.117 33.063 2.012 63.243 13.438 87.282 33.04 23.199 18.913 39.035 44.487 47.078 76.003 7 27.437 7.37 54.375 7.726 80.422.258 18.691.528 40.84.578 63.363-.05 22.617-.32 44.766-.578 63.457-.148 11.047-9.273 19.875-20.27 19.727-11.046-.153-19.874-9.23-19.726-20.274.254-18.582.524-40.586.574-62.91-.05-22.23-.32-44.234-.574-62.816-.324-23.715-.66-48.239-6.488-71.078-5.879-23.04-17.184-41.508-33.598-54.895-17.754-14.48-39.433-22.594-64.433-24.113-35.215-2.14-71.465-3.13-110.848-3.047-39.476-.094-75.73.906-110.945 3.047-25 1.52-46.676 9.633-64.434 24.11-16.414 13.386-27.719 31.855-33.597 54.898-5.829 22.84-6.165 47.363-6.489 71.078-.254 18.582-.52 40.586-.574 62.91.055 22.23.32 44.234.574 62.816.324 23.715.66 48.239 6.489 71.078 5.878 23.04 17.183 41.508 33.597 54.895 17.758 14.48 39.434 22.594 64.434 24.113 35.215 2.14 71.476 3.14 110.851 3.043 39.48.094 75.727-.902 110.942-3.043 25-1.52 46.676-9.633 64.433-24.113 11.825-9.645 21.063-22.02 27.457-36.785 4.391-10.133 16.164-14.793 26.301-10.403 10.137 4.391 14.793 16.165 10.406 26.301-8.964 20.7-22.046 38.156-38.886 51.887-24.04 19.605-54.22 31.027-87.282 33.039C334.781 510.977 299.305 512 261.04 512zm118.948-256c0-68.926-56.074-125-125-125-68.922 0-125 56.074-125 125s56.078 125 125 125c68.926 0 125-56.074 125-125zm-40 0c0 46.867-38.129 85-85 85-46.867 0-85-38.133-85-85s38.133-85 85-85c46.871 0 85 38.133 85 85zm54-165c-16.566 0-30 13.43-30 30s13.434 30 30 30c16.57 0 30-13.43 30-30s-13.43-30-30-30zm0 0"/></svg>