<svg xmlns="http://www.w3.org/2000/svg" width="35" height="35" viewBox="0 0 444.531 444.531"><path d="M231.4 222.122L92.65 360.878c-7.05 7.043-10.567 15.657-10.567 25.841 0 10.183 3.518 18.793 10.567 25.835l21.409 21.416c7.039 7.04 15.654 10.561 25.834 10.561s18.791-3.521 25.841-10.561l186.147-185.864c7.044-7.043 10.566-15.656 10.566-25.841s-3.521-18.791-10.566-25.837L165.735 10.564C158.685 3.521 150.075 0 139.894 0s-18.795 3.521-25.834 10.564L92.651 31.976c-7.05 7.039-10.567 15.604-10.567 25.697 0 10.085 3.518 18.746 10.567 25.978L231.4 222.122z" data-original="#000000" xmlns="http://www.w3.org/2000/svg"/></svg>