<svg version="1.1" id="Capa_1" xmlns="http://www.w3.org/2000/svg" x="0" y="0" viewBox="0 0 882.1 202.6" xml:space="preserve"><style>.st0{fill:#fff}</style><path class="st0" d="M232.8 9.4c-12 5.5-35.7 27.6-34.4 49.9 1.4 22.4 16.7 26.8 16.7 26.8 4.4.3 4.4-2.5 4.4-2.5s-7.9-9-5.7-30.6 18.8-33.3 18.8-33.3v100.2c0 21-3.5 30-6 36.3 21.8-.3 23.2-40.1 23.2-40.1V22.5c-.1-14.2-7.2-13.1-17-13.1zm640.3 100.4l-3.2-.3c-.4 7-6.1 19.6-10.5 19.5s-6.7-2-8.6-12.6c-1.9-10.5-1.5-28.4-1.2-43.3s-4.5-18-11.7-18.9-9.5 4.4-11.7 10.2c-2.2 5.9-12.6 36-12.6 36s-.7-15.3-.9-27.6c-.1-12.3-4.4-19.3-13-19.3s-10.7 10.7-11 11.4-9.1 22.3-9.1 22.3v-24c0-11.2-16.9-9.6-16.9-9.6v55.1s-3.3 21.6-12.6 21.6-9.5-20.7-9.5-20.7V65.1c0-12.8-12.8-9.3-13.9-9.8-1.1-.5-1.9 3.3-2.7 5.5-14.2-13.1-29.5-7.4-37.1 6-7.7 13.4-9.6 35.8-6 52.1-1.4 9.8-10.1 10.4-10.1 10.4-8.7 0-9.3-12.8-9.3-12.8-2.7-20.5 2.7-41.5 3.3-50.2s-13.6-8.2-19.1-4.4c-5.5 3.8-7.6-.5-7.6-.5s-2.8-12.6-13.4-11.7c-10.6.8-9.3 15.6-6.8 18 2.4 2.5 2.7 7.4.8 17.7-1.9 10.4-17.5 31.7-17.5 31.7s.3-36.3.3-51.9-17.2-9-17.2-9l-.6 5.7c-18.5-20.7-32.8-1.4-32.8-1.4-19.4 23.2-11.7 54-11.2 57.6.5 3.5-3 12.3-11.5 12.3-8.4 0-8.2-15.6-8.2-15.6V63.5c0-11.2-16.1-8.7-16.1-8.7v6.8s-11.7-20.7-30.6-7.1c-18.8 13.6-16.7 53-16.9 53.8-.3.8-7.1 17.5-14.7 17.5-7.7 0-7.4-18.6-7.4-18.6V50.3h16.9c12.3 0 10.1-12 10.1-12h-25.4V13.5c-3.1-3.1-9.8-6.8-13.9-6.8s-6.8 3.8-6.8 3.8v26.8h-16.7c-6.6 0-5.5 12.6-5.5 12.6h22.1v36.3c0 15-8.2 24.8-14.2 31.7 3.6-17.5-13.1-30.3-22.7-35.8-9.5-5.5-1.1-11.7 2.2-17.2 3.3-5.5 4.1-12.3-6.8-12.3s-17.5 7.6-19.1 16.1 4.6 13.9 3.8 17.2c-.8 3.3-19.9 31.4-23.8 36.6-3.8 5.2-5.2-5.2-5.2-5.2V62.9s-4.1-6.3-9-8.2-15.3-2.5-21.8 9.5c-6.6 12-16.7 33-16.7 33V62.8c0-10.6-14.7-9-14.7-9v74.5s-.6 11.2 9 11.2l7.6-.3c3-41.8 20.8-62.5 24.8-68 4.1-5.5 3.3.8 3.3.8v46.4c0 16.1 9.8 28.4 24.3 14.7S365 89.4 365 89.4c2.5 6 10.9 7.4 16.6 17.7 5.7 10.4-1.1 19.1-9 19.4s-6.8-7.4-11.7-7.1c-4.9.3-12 7.4-4.9 14.2 7.1 6.8 22.7 4.9 22.7 4.9 26.8 0 35.7-31.7 35.7-31.7 1.4 12 3 31.7 20.5 31.7s22.9-21.3 22.9-21.3 6 21.3 24.6 21.3c18.5 0 24-15.8 24-15.8 1.6 8.5 8.2 16.6 18.3 16.6s17.8-13.1 17.8-13.1S547 139 561.7 139s22.6-13.1 22.6-13.1v7.2s-9.9 11.7-22.4 24.2c-16 16.1-24 43.9 7.7 43.9s30.8-34.4 30.8-34.4 1.6-14.2 0-37.9c20.7-16.9 28.9-47.2 30-50.8 1.1-3.6 6.6-4.9 6.6-4.9h12.8s-5.5 14.5-5.7 33c-.3 18.6 7.9 33.6 20.2 33.6s19.1-12.8 19.1-12.8 3.3 11.7 21 11.7c17.8 0 24.4-18.8 24.4-18.8s5 19 17.3 19 17.8-13.7 17.8-13.7.4 11.8 0 11.8h19.4v-21.6c0-17.8 7.3-32.2 11-38.9 3.6-6.7 5.3-.6 5.3-.6s0 .6.4 25.7c.4 25.2 7 30.7 12.9 30.7 5.8 0 5.3-5 6.9-14.2 2-22.1 14.9-44.8 14.9-44.8v32.3c0 5.7-.6 33.5 19.4 33.5 20.1.2 19-29.3 19-29.3zM502.8 97.5c-1.6 20.2-9.5 30-15.8 30s-13-14.3-12-31.4 7.7-30.3 14-30.3c9.1.1 15.5 10.2 13.8 31.7zm80.2 0c-1.6 20.2-9.5 30-15.8 30s-13-14.3-12-31.4 7.7-30.3 14-30.3c9.2.1 15.6 10.2 13.8 31.7zm-11.1 92.8c-19.8 2.2-11.5-14.9-6-22.4 6.4-8.7 20.8-21.2 20.8-21.2s2.5 41.7-14.8 43.6zm152.2-92.8c-1.6 20.2-9.5 30-15.8 30s-13-14.3-12-31.4 7.7-30.3 14-30.3c9.2.1 15.6 10.2 13.8 31.7zM117.5 12.3H52.4c-24.9 0-45.1 20.2-45.1 45.1v65.1c0 24.9 20.2 45.1 45.1 45.1h65.1c7.2 0 14-1.6 20.4-4.9 6.1-3.1 11.4-7.6 15.6-13 2-2.7 1.5-6.5-1.2-8.5s-6.5-1.5-8.5 1.2c-6.3 8.3-15.9 13.1-26.3 13.1H52.4c-18.2 0-33-14.8-33-33V57.4c0-18.2 14.8-33 33-33h65.1c18.2 0 33 14.8 33 33v59c0 3.4 2.7 6.1 6.1 6.1s6.1-2.7 6.1-6.1v-59c0-24.9-20.3-45.1-45.2-45.1z"/><path class="st0" d="M85 48.1c-23.1 0-41.9 18.8-41.9 41.9s18.8 41.9 41.9 41.9 41.9-18.8 41.9-41.9S108.1 48.1 85 48.1zm0 71.6c-16.4 0-29.7-13.3-29.7-29.7S68.6 60.2 85 60.2s29.7 13.3 29.7 29.7-13.3 29.8-29.7 29.8z"/><circle class="st0" cx="127.5" cy="47.5" r="6.1"/></svg>